<svg xmlns="http://www.w3.org/2000/svg" viewBox="0 0 32 32" fill="none">
  <!-- Hoja central (más grande, derecha) -->
  <path d="M16 28 C16 28 9 22 9 14 C9 9 12 6 16 6 C20 6 23 9 23 14 C23 22 16 28 16 28Z" fill="#4A654F"/>
  <!-- Hoja izquierda -->
  <path d="M16 24 C16 24 7 20 6 13 C5.5 9 8 7 11 8 C13 8.5 14.5 10 15 13 C15.5 17 16 24 16 24Z" fill="#6B8F71"/>
  <!-- Hoja derecha -->
  <path d="M16 24 C16 24 25 20 26 13 C26.5 9 24 7 21 8 C19 8.5 17.5 10 17 13 C16.5 17 16 24 16 24Z" fill="#6B8F71"/>
  <!-- Hoja pequeña izquierda -->
  <path d="M15 18 C15 18 8 16 7 11 C6.5 8 9 7 11 8.5 C13 10 14 13 15 18Z" fill="#8BAF8F" opacity="0.8"/>
  <!-- Puntito brillante en hoja central -->
  <ellipse cx="14" cy="12" rx="1.2" ry="2" fill="#A8C9AD" opacity="0.6" transform="rotate(-10 14 12)"/>
  <!-- Base / tierra -->
  <ellipse cx="16" cy="28.5" rx="4" ry="1.2" fill="#8B6B4A" opacity="0.5"/>
</svg>
